<svg width="100" height="100" viewBox="0 0 100 100" fill="none" xmlns="http://www.w3.org/2000/svg">
<path d="M20.6641 2.03125C18.5742 2.89062 17.1289 4.47266 16.5039 6.52344C16.3281 7.07031 12.9297 24.7852 8.92577 45.8984L1.66015 84.2773L1.60155 88.8867C1.56249 93.1836 1.58202 93.5742 1.97265 94.6094C2.51952 96.0742 3.90624 97.4805 5.37108 98.0273L6.46483 98.4375H50H93.5351L94.6289 98.0273C96.0742 97.4805 97.4805 96.0742 98.0273 94.6289C98.3984 93.6328 98.4375 93.125 98.4375 89.082C98.4375 84.4141 98.3203 83.6523 97.4805 82.4609C97.1289 81.9336 97.1289 81.9141 97.7148 79.6875C98.2031 77.7539 98.3008 76.9922 98.3789 74.2188C98.457 71.7773 98.3984 70.5469 98.164 69.1406C97.5781 65.7617 96.0937 62.1094 94.1992 59.3945L93.3398 58.1445L88.4765 32.3828C84.7851 12.8125 83.4961 6.36719 83.125 5.56641C82.5 4.21875 81.1328 2.83203 79.7266 2.1875L78.6133 1.66016L50.1953 1.62109L21.7773 1.5625L20.6641 2.03125ZM77.168 4.88281C78.457 5.13672 79.4336 5.85938 80.0391 7.05078C80.3711 7.69531 81.5039 13.3594 84.7656 30.7227C87.1289 43.2617 89.0625 53.5547 89.0625 53.6133C89.0625 53.6523 88.3594 53.2227 87.5 52.6367C84.668 50.7031 81.4648 49.3945 77.9687 48.6914C75.4492 48.2031 71.0156 48.2422 68.418 48.8086C63.3984 49.8633 59.1992 52.1289 55.6641 55.6641C52.0508 59.2773 49.5898 63.9648 48.7109 68.9453C48.3008 71.3086 48.3398 75.8203 48.7891 77.9688L49.1406 79.6875L27.5976 79.7266C14.9023 79.7656 6.05468 79.707 6.05468 79.6094C6.05468 79.5117 9.08202 63.3398 12.793 43.6719C17.9687 16.0938 19.6289 7.71484 19.9609 7.05078C20.5273 5.9375 21.5625 5.11719 22.6758 4.90234C23.9258 4.64844 75.8594 4.64844 77.168 4.88281ZM76.0937 51.8555C77.832 52.0117 80.6836 52.832 82.5195 53.6914C87.7148 56.1133 91.8359 60.5664 93.8086 65.8594C94.8242 68.5742 95.0195 69.7852 95 73.5352C95 76.6797 94.9414 77.2461 94.4922 78.9258C92.2265 87.2656 85.2539 93.5547 76.7578 94.9414C74.8828 95.2344 71.1914 95.1758 69.4141 94.8242C64.9609 93.9062 61.2305 91.9141 58.0859 88.7891C49.5703 80.2539 49.5703 66.6016 58.0859 58.0859C61.7187 54.4531 66.4648 52.2266 71.4844 51.7578C73.1055 51.6211 73.6719 51.6406 76.0937 51.8555ZM10.9375 86.7188V90.625H12.5H14.0625V86.7188V82.8125H16.4062H18.75V86.7188V90.625H20.3125H21.875V86.7188V82.8125H24.2187H26.5625V86.7188V90.625H28.125H29.6875V86.7188V82.8125H32.0312H34.375V86.7188V90.625H35.9375H37.5V86.7188V82.8125H39.8437H42.1875V86.7188V90.625H43.75H45.3125V86.7188V82.8125H47.7148H50.1172L50.8008 84.2188C52.5976 87.9883 56.0156 91.9727 59.375 94.2188L61.0351 95.3125H34.5703C19.3945 95.3125 7.77343 95.2344 7.34374 95.1172C6.38671 94.9023 5.68358 94.3945 5.17577 93.5352C4.82421 92.9297 4.78515 92.5195 4.78515 89.0625C4.78515 85.6055 4.82421 85.1953 5.17577 84.5898C5.95702 83.2617 6.89452 82.8711 9.43358 82.832L10.9375 82.8125V86.7188ZM95.2148 92.1289C95.0781 93.3398 94.4922 94.2578 93.5547 94.8047C92.9492 95.1758 92.4805 95.2148 89.3555 95.2734L85.8398 95.332L87.5 94.2188C89.5898 92.832 92.9687 89.4336 94.2383 87.4609L95.2148 85.957L95.2734 88.5352C95.3125 89.9609 95.2734 91.5625 95.2148 92.1289Z" fill="black"/>
<path d="M31.25 12.5V14.0625H32.8125H34.375V12.5V10.9375H32.8125H31.25V12.5Z" fill="black"/>
<path d="M48.4375 12.5V14.0625H50H51.5625V12.5V10.9375H50H48.4375V12.5Z" fill="black"/>
<path d="M65.625 12.5V14.0625H67.1875H68.75V12.5V10.9375H67.1875H65.625V12.5Z" fill="black"/>
<path d="M29.6875 21.875V23.4375H31.25H32.8125V21.875V20.3125H31.25H29.6875V21.875Z" fill="black"/>
<path d="M48.4375 21.875V23.4375H50H51.5625V21.875V20.3125H50H48.4375V21.875Z" fill="black"/>
<path d="M67.1875 21.875V23.4375H68.75H70.3125V21.875V20.3125H68.75H67.1875V21.875Z" fill="black"/>
<path d="M28.125 31.25V32.8125H29.6875H31.25V31.25V29.6875H29.6875H28.125V31.25Z" fill="black"/>
<path d="M48.4375 31.25V32.8125H50H51.5625V31.25V29.6875H50H48.4375V31.25Z" fill="black"/>
<path d="M68.75 31.25V32.8125H70.3125H71.875V31.25V29.6875H70.3125H68.75V31.25Z" fill="black"/>
<path d="M26.5625 40.625V42.1875H28.125H29.6875V40.625V39.0625H28.125H26.5625V40.625Z" fill="black"/>
<path d="M48.4375 40.625V42.1875H50H51.5625V40.625V39.0625H50H48.4375V40.625Z" fill="black"/>
<path d="M70.3125 40.625V42.1875H71.875H73.4375V40.625V39.0625H71.875H70.3125V40.625Z" fill="black"/>
<path d="M25 50V51.5625H26.5625H28.125V50V48.4375H26.5625H25V50Z" fill="black"/>
<path d="M48.4375 50V51.5625H50H51.5625V50V48.4375H50H48.4375V50Z" fill="black"/>
<path d="M23.4375 59.375V60.9375H25H26.5625V59.375V57.8125H25H23.4375V59.375Z" fill="black"/>
<path d="M21.875 68.75V70.3125H23.4375H25V68.75V67.1875H23.4375H21.875V68.75Z" fill="black"/>
<path d="M59.7656 62.8906C59.3945 63.2617 59.375 63.5352 59.375 68.7109C59.375 75.0195 59.5312 75.9961 61.0352 79.0039C62.5 81.9727 64.8633 84.3359 67.8711 85.8398C70.8398 87.3438 71.8555 87.5 78.1641 87.5C84.668 87.5 84.375 87.5977 84.375 85.2539V83.8086L85.6445 82.5195C88.7305 79.375 90.6055 75.0586 90.625 71.0352C90.625 69.7656 90.5664 69.4727 90.2148 69.1211C89.8242 68.7305 89.6484 68.7109 87.7148 68.8086C85.3516 68.9258 82.7539 69.6484 80.7812 70.7617L79.6094 71.4063L77.6562 69.4531C75.5664 67.3633 73.8086 66.0742 71.3477 64.8438C68.3203 63.3398 64.9023 62.5 61.7969 62.5C60.4102 62.5 60.0977 62.5586 59.7656 62.8906ZM66.4062 66.5234C73.2617 68.4961 78.5547 73.9063 80.4688 80.9375C80.7031 81.7773 80.8594 82.5 80.8008 82.5391C80.5664 82.793 75.2539 79.1406 73.6914 77.6758C71.9141 75.9766 70 73.5938 69.2188 72.0313C68.9648 71.5234 68.7109 71.0938 68.6523 71.0938C68.5938 71.0938 67.9102 71.4258 67.0898 71.8164L65.625 72.5391L66.3281 73.8281C68.1445 77.1484 71.4648 80.6641 74.8828 82.9102C76.7969 84.1602 76.9141 84.2773 76.3867 84.3359C75.2734 84.4531 72.2852 84.0039 70.8789 83.5156C68.418 82.6563 66.2305 80.957 64.7461 78.7109C63.0078 76.0938 62.5195 73.8281 62.5 68.4766V65.7813L63.6133 65.918C64.2383 65.9961 65.4883 66.2695 66.4062 66.5234ZM87.1875 72.5977C86.6602 75.0781 85.5273 77.5586 84.2969 78.9844L83.6523 79.7656L83.2031 78.3984C82.9492 77.6563 82.4609 76.4453 82.0898 75.7031C81.3281 74.1992 81.25 74.3555 83.0859 73.418C84.0039 72.9297 86.4648 72.1289 87.168 72.0898C87.2461 72.0703 87.2656 72.3047 87.1875 72.5977Z" fill="black"/>
</svg>
