<svg width="100" height="100" viewBox="0 0 100 100" fill="none" xmlns="http://www.w3.org/2000/svg">
<path d="M11.8164 18.5742C8.37891 26.2109 5.54688 32.5391 5.50782 32.6367C5.46875 32.7344 23.1445 32.8125 50 32.8125C76.582 32.8125 94.5313 32.7344 94.4922 32.6367C94.4727 32.5391 91.6211 26.2109 88.1836 18.5742L81.9531 4.6875H50H18.0664L11.8164 18.5742ZM26.5625 9.375V10.9375H25H23.4375V9.375V7.8125H25H26.5625V9.375ZM39.0625 9.375V10.9375H37.5H35.9375V9.375V7.8125H37.5H39.0625V9.375ZM51.5625 9.375V10.9375H50H48.4375V9.375V7.8125H50H51.5625V9.375ZM64.0625 9.375V10.9375H62.5H60.9375V9.375V7.8125H62.5H64.0625V9.375ZM76.5625 9.375V10.9375H75H73.4375V9.375V7.8125H75H76.5625V9.375ZM23.4375 15.625V17.1875H21.875H20.3125V15.625V14.0625H21.875H23.4375V15.625ZM37.5 15.625V17.1875H35.9375H34.375V15.625V14.0625H35.9375H37.5V15.625ZM51.5625 15.625V17.1875H50H48.4375V15.625V14.0625H50H51.5625V15.625ZM65.625 15.625V17.1875H64.0625H62.5V15.625V14.0625H64.0625H65.625V15.625ZM79.6875 15.625V17.1875H78.125H76.5625V15.625V14.0625H78.125H79.6875V15.625ZM20.3125 21.875V23.4375H18.75H17.1875V21.875V20.3125H18.75H20.3125V21.875ZM35.9375 21.875V23.4375H34.375H32.8125V21.875V20.3125H34.375H35.9375V21.875ZM51.5625 21.875V23.4375H50H48.4375V21.875V20.3125H50H51.5625V21.875ZM67.1875 21.875V23.4375H65.625H64.0625V21.875V20.3125H65.625H67.1875V21.875ZM82.8125 21.875V23.4375H81.25H79.6875V21.875V20.3125H81.25H82.8125V21.875ZM17.1875 28.125V29.6875H15.625H14.0625V28.125V26.5625H15.625H17.1875V28.125ZM34.375 28.125V29.6875H32.8125H31.25V28.125V26.5625H32.8125H34.375V28.125ZM51.5625 28.125V29.6875H50H48.4375V28.125V26.5625H50H51.5625V28.125ZM68.75 28.125V29.6875H67.1875H65.625V28.125V26.5625H67.1875H68.75V28.125ZM85.9375 28.125V29.6875H84.375H82.8125V28.125V26.5625H84.375H85.9375V28.125Z" fill="black"/>
<path d="M4.6875 37.5V39.0625H50H95.3125V37.5V35.9375H50H4.6875V37.5Z" fill="black"/>
<path d="M4.6875 52.2461C4.6875 55.4492 4.72656 56.0352 4.96094 55.9375C5.11719 55.8789 5.44922 55.3711 5.72266 54.8242C6.28906 53.6133 7.65625 52.3047 8.71094 51.9336C9.12109 51.7969 10.1367 51.6797 10.9375 51.6797C11.7383 51.6797 12.7539 51.7969 13.1641 51.9336C14.2383 52.3047 15.6055 53.6328 16.1328 54.8242C16.3867 55.3906 16.7578 55.9375 16.9727 56.0352C17.1875 56.1523 17.9883 56.25 18.75 56.25C19.5117 56.25 20.3125 56.1523 20.5273 56.0352C20.7422 55.9375 21.1133 55.3906 21.3672 54.8242C21.8945 53.6328 23.2617 52.3047 24.3359 51.9336C25.3125 51.6016 27.8125 51.6016 28.7891 51.9336C29.8633 52.3047 31.2305 53.6328 31.7578 54.8242C32.0117 55.3906 32.3828 55.9375 32.5977 56.0352C33.1055 56.3086 35.6445 56.3086 36.1523 56.0352C36.3672 55.9375 36.7383 55.3906 36.9922 54.8242C37.5195 53.6328 38.8867 52.3047 39.9609 51.9336C40.9375 51.6016 43.4375 51.6016 44.4141 51.9336C45.4883 52.3047 46.8555 53.6328 47.3828 54.8242C47.6367 55.3906 48.0078 55.9375 48.2227 56.0352C48.4375 56.1523 49.2383 56.25 50 56.25C50.7617 56.25 51.5625 56.1523 51.7773 56.0352C51.9922 55.9375 52.3633 55.3906 52.6172 54.8242C53.1445 53.6328 54.5117 52.3047 55.5859 51.9336C56.5625 51.6016 59.0625 51.6016 60.0391 51.9336C61.1133 52.3047 62.4805 53.6328 63.0078 54.8242C63.2617 55.3906 63.6328 55.9375 63.8477 56.0352C64.3555 56.3086 66.8945 56.3086 67.4023 56.0352C67.6172 55.9375 67.9883 55.3906 68.2422 54.8242C68.7695 53.6328 70.1367 52.3047 71.2109 51.9336C72.1875 51.6016 74.6875 51.6016 75.6641 51.9336C76.7383 52.3047 78.1055 53.6328 78.6328 54.8242C78.8867 55.3906 79.2578 55.9375 79.4727 56.0352C79.9805 56.3086 82.5195 56.3086 83.0273 56.0352C83.2422 55.9375 83.6133 55.3906 83.8672 54.8242C84.3945 53.6328 85.7617 52.3047 86.8359 51.9336C87.8125 51.6016 90.3125 51.6016 91.2891 51.9336C92.3438 52.3047 93.7109 53.6133 94.2773 54.8242C94.5508 55.3711 94.8828 55.8789 95.0391 55.9375C95.2734 56.0352 95.3125 55.4492 95.3125 52.2461V48.4375H50H4.6875V52.2461Z" fill="black"/>
<path d="M9.12109 54.9023C8.92578 55.0195 8.57422 55.5664 8.32031 56.1133C7.79297 57.3047 6.42578 58.6328 5.41016 58.9648L4.6875 59.2187V62.3047C4.6875 64.9219 4.72656 65.3906 4.96094 65.3125C5.11719 65.2539 5.44922 64.7461 5.72266 64.1992C6.28906 62.9883 7.65625 61.6797 8.71094 61.3086C9.12109 61.1719 10.1367 61.0547 10.9375 61.0547C11.7383 61.0547 12.7539 61.1719 13.1641 61.3086C14.2383 61.6797 15.6055 63.0078 16.1328 64.1992C16.3867 64.7656 16.7578 65.3125 16.9727 65.4102C17.1875 65.5273 17.9883 65.625 18.75 65.625C19.5117 65.625 20.3125 65.5273 20.5273 65.4102C20.7422 65.3125 21.1133 64.7656 21.3672 64.1992C21.8945 63.0078 23.2617 61.6797 24.3359 61.3086C25.3125 60.9766 27.8125 60.9766 28.7891 61.3086C29.8633 61.6797 31.2305 63.0078 31.7578 64.1992C32.0117 64.7656 32.3828 65.3125 32.5977 65.4102C33.1055 65.6836 35.6445 65.6836 36.1523 65.4102C36.3672 65.3125 36.7383 64.7656 36.9922 64.1992C37.5195 63.0078 38.8867 61.6797 39.9609 61.3086C40.9375 60.9766 43.4375 60.9766 44.4141 61.3086C45.4883 61.6797 46.8555 63.0078 47.3828 64.1992C47.6367 64.7656 48.0078 65.3125 48.2227 65.4102C48.4375 65.5273 49.2383 65.625 50 65.625C50.7617 65.625 51.5625 65.5273 51.7773 65.4102C51.9922 65.3125 52.3633 64.7656 52.6172 64.1992C53.1445 63.0078 54.5117 61.6797 55.5859 61.3086C56.5625 60.9766 59.0625 60.9766 60.0391 61.3086C61.1133 61.6797 62.4805 63.0078 63.0078 64.1992C63.2617 64.7656 63.6328 65.3125 63.8477 65.4102C64.3555 65.6836 66.8945 65.6836 67.4023 65.4102C67.6172 65.3125 67.9883 64.7656 68.2422 64.1992C68.7695 63.0078 70.1367 61.6797 71.2109 61.3086C72.1875 60.9766 74.6875 60.9766 75.6641 61.3086C76.7383 61.6797 78.1055 63.0078 78.6328 64.1992C78.8867 64.7656 79.2578 65.3125 79.4727 65.4102C79.9805 65.6836 82.5195 65.6836 83.0273 65.4102C83.2422 65.3125 83.6133 64.7656 83.8672 64.1992C84.3945 63.0078 85.7617 61.6797 86.8359 61.3086C87.8125 60.9766 90.3125 60.9766 91.2891 61.3086C92.3438 61.6797 93.7109 62.9883 94.2773 64.1992C94.5508 64.7461 94.8828 65.2539 95.0391 65.3125C95.2734 65.3906 95.3125 64.9219 95.3125 62.3242V59.2383L94.4531 58.9062C93.418 58.5156 92.1289 57.168 91.6016 55.957C91.4062 55.4883 91.0547 55.0195 90.8398 54.9023C90.3516 54.6289 87.793 54.6289 87.2852 54.9023C87.0703 55 86.6992 55.5469 86.4453 56.1133C85.918 57.3047 84.5508 58.6328 83.4766 59.0039C82.5 59.3359 80 59.3359 79.0234 59.0039C77.9492 58.6328 76.582 57.3047 76.0547 56.1133C75.8008 55.5469 75.4297 55 75.2148 54.9023C74.707 54.6289 72.168 54.6289 71.6602 54.9023C71.4453 55 71.0742 55.5469 70.8203 56.1133C70.293 57.3047 68.9258 58.6328 67.8516 59.0039C66.875 59.3359 64.375 59.3359 63.3984 59.0039C62.3242 58.6328 60.957 57.3047 60.4297 56.1133C60.1758 55.5469 59.8047 55 59.5898 54.9023C59.082 54.6289 56.543 54.6289 56.0352 54.9023C55.8203 55 55.4492 55.5469 55.1953 56.1133C54.668 57.3047 53.3008 58.6328 52.2266 59.0039C51.25 59.3359 48.75 59.3359 47.7734 59.0039C46.6992 58.6328 45.332 57.3047 44.8047 56.1133C44.5508 55.5469 44.1797 55 43.9648 54.9023C43.457 54.6289 40.918 54.6289 40.4102 54.9023C40.1953 55 39.8242 55.5469 39.5703 56.1133C39.043 57.3047 37.6758 58.6328 36.6016 59.0039C35.625 59.3359 33.125 59.3359 32.1484 59.0039C31.0742 58.6328 29.707 57.3047 29.1797 56.1133C28.9258 55.5469 28.5547 55 28.3398 54.9023C27.832 54.6289 25.293 54.6289 24.7852 54.9023C24.5703 55 24.1992 55.5469 23.9453 56.1133C23.418 57.3047 22.0508 58.6328 20.9766 59.0039C20 59.3359 17.5 59.3359 16.5234 59.0039C15.4492 58.6328 14.082 57.3047 13.5547 56.1133C13.3008 55.5469 12.9297 55 12.7148 54.9023C12.2266 54.6289 9.58984 54.6289 9.12109 54.9023Z" fill="black"/>
<path d="M9.12109 64.2773C8.92578 64.3945 8.57422 64.9414 8.32031 65.4883C7.79297 66.6797 6.42578 68.0078 5.41016 68.3398L4.6875 68.5937V71.6797C4.6875 74.2969 4.72656 74.7656 4.96094 74.6875C5.11719 74.6289 5.44922 74.1211 5.72266 73.5742C6.28906 72.3633 7.65625 71.0547 8.71094 70.6836C9.12109 70.5469 10.1367 70.4297 10.9375 70.4297C11.7383 70.4297 12.7539 70.5469 13.1641 70.6836C14.2383 71.0547 15.6055 72.3828 16.1328 73.5742C16.3867 74.1406 16.7578 74.6875 16.9727 74.7852C17.1875 74.9023 17.9883 75 18.75 75C19.5117 75 20.3125 74.9023 20.5273 74.7852C20.7422 74.6875 21.1133 74.1406 21.3672 73.5742C21.8945 72.3828 23.2617 71.0547 24.3359 70.6836C25.3125 70.3516 27.8125 70.3516 28.7891 70.6836C29.8633 71.0547 31.2305 72.3828 31.7578 73.5742C32.0117 74.1406 32.3828 74.6875 32.5977 74.7852C33.1055 75.0586 35.6445 75.0586 36.1523 74.7852C36.3672 74.6875 36.7383 74.1406 36.9922 73.5742C37.5195 72.3828 38.8867 71.0547 39.9609 70.6836C40.9375 70.3516 43.4375 70.3516 44.4141 70.6836C45.4883 71.0547 46.8555 72.3828 47.3828 73.5742C47.6367 74.1406 48.0078 74.6875 48.2227 74.7852C48.4375 74.9023 49.2383 75 50 75C50.7617 75 51.5625 74.9023 51.7773 74.7852C51.9922 74.6875 52.3633 74.1406 52.6172 73.5742C53.1445 72.3828 54.5117 71.0547 55.5859 70.6836C56.5625 70.3516 59.0625 70.3516 60.0391 70.6836C61.1133 71.0547 62.4805 72.3828 63.0078 73.5742C63.2617 74.1406 63.6328 74.6875 63.8477 74.7852C64.3555 75.0586 66.8945 75.0586 67.4023 74.7852C67.6172 74.6875 67.9883 74.1406 68.2422 73.5742C68.7695 72.3828 70.1367 71.0547 71.2109 70.6836C72.1875 70.3516 74.6875 70.3516 75.6641 70.6836C76.7383 71.0547 78.1055 72.3828 78.6328 73.5742C78.8867 74.1406 79.2578 74.6875 79.4727 74.7852C79.9805 75.0586 82.5195 75.0586 83.0273 74.7852C83.2422 74.6875 83.6133 74.1406 83.8672 73.5742C84.3945 72.3828 85.7617 71.0547 86.8359 70.6836C87.8125 70.3516 90.3125 70.3516 91.2891 70.6836C92.3438 71.0547 93.7109 72.3633 94.2773 73.5742C94.5508 74.1211 94.8828 74.6289 95.0391 74.6875C95.2734 74.7656 95.3125 74.2969 95.3125 71.6992V68.6133L94.4531 68.2812C93.418 67.8906 92.1289 66.543 91.6016 65.332C91.4062 64.8633 91.0547 64.3945 90.8398 64.2773C90.3516 64.0039 87.793 64.0039 87.2852 64.2773C87.0703 64.375 86.6992 64.9219 86.4453 65.4883C85.918 66.6797 84.5508 68.0078 83.4766 68.3789C82.5 68.7109 80 68.7109 79.0234 68.3789C77.9492 68.0078 76.582 66.6797 76.0547 65.4883C75.8008 64.9219 75.4297 64.375 75.2148 64.2773C74.707 64.0039 72.168 64.0039 71.6602 64.2773C71.4453 64.375 71.0742 64.9219 70.8203 65.4883C70.293 66.6797 68.9258 68.0078 67.8516 68.3789C66.875 68.7109 64.375 68.7109 63.3984 68.3789C62.3242 68.0078 60.957 66.6797 60.4297 65.4883C60.1758 64.9219 59.8047 64.375 59.5898 64.2773C59.082 64.0039 56.543 64.0039 56.0352 64.2773C55.8203 64.375 55.4492 64.9219 55.1953 65.4883C54.668 66.6797 53.3008 68.0078 52.2266 68.3789C51.25 68.7109 48.75 68.7109 47.7734 68.3789C46.6992 68.0078 45.332 66.6797 44.8047 65.4883C44.5508 64.9219 44.1797 64.375 43.9648 64.2773C43.457 64.0039 40.918 64.0039 40.4102 64.2773C40.1953 64.375 39.8242 64.9219 39.5703 65.4883C39.043 66.6797 37.6758 68.0078 36.6016 68.3789C35.625 68.7109 33.125 68.7109 32.1484 68.3789C31.0742 68.0078 29.707 66.6797 29.1797 65.4883C28.9258 64.9219 28.5547 64.375 28.3398 64.2773C27.832 64.0039 25.293 64.0039 24.7852 64.2773C24.5703 64.375 24.1992 64.9219 23.9453 65.4883C23.418 66.6797 22.0508 68.0078 20.9766 68.3789C20 68.7109 17.5 68.7109 16.5234 68.3789C15.4492 68.0078 14.082 66.6797 13.5547 65.4883C13.3008 64.9219 12.9297 64.375 12.7148 64.2773C12.2266 64.0039 9.58984 64.0039 9.12109 64.2773Z" fill="black"/>
<path d="M9.12109 73.6523C8.92578 73.7695 8.57422 74.3164 8.32031 74.8633C7.79297 76.0547 6.42578 77.3828 5.41016 77.7148L4.6875 77.9688V80.3906V82.8125H50H95.3125V80.3906V77.9883L94.4531 77.6562C93.418 77.2656 92.1289 75.918 91.6016 74.707C91.4062 74.2383 91.0547 73.7695 90.8398 73.6523C90.3516 73.3789 87.793 73.3789 87.2852 73.6523C87.0703 73.75 86.6992 74.2969 86.4453 74.8633C85.918 76.0547 84.5508 77.3828 83.4766 77.7539C82.5 78.0859 80 78.0859 79.0234 77.7539C77.9492 77.3828 76.582 76.0547 76.0547 74.8633C75.8008 74.2969 75.4297 73.75 75.2148 73.6523C74.707 73.3789 72.168 73.3789 71.6602 73.6523C71.4453 73.75 71.0742 74.2969 70.8203 74.8633C70.293 76.0547 68.9258 77.3828 67.8516 77.7539C66.875 78.0859 64.375 78.0859 63.3984 77.7539C62.3242 77.3828 60.957 76.0547 60.4297 74.8633C60.1758 74.2969 59.8047 73.75 59.5898 73.6523C59.082 73.3789 56.543 73.3789 56.0352 73.6523C55.8203 73.75 55.4492 74.2969 55.1953 74.8633C54.668 76.0547 53.3008 77.3828 52.2266 77.7539C51.25 78.0859 48.75 78.0859 47.7734 77.7539C46.6992 77.3828 45.332 76.0547 44.8047 74.8633C44.5508 74.2969 44.1797 73.75 43.9648 73.6523C43.457 73.3789 40.918 73.3789 40.4102 73.6523C40.1953 73.75 39.8242 74.2969 39.5703 74.8633C39.043 76.0547 37.6758 77.3828 36.6016 77.7539C35.625 78.0859 33.125 78.0859 32.1484 77.7539C31.0742 77.3828 29.707 76.0547 29.1797 74.8633C28.9258 74.2969 28.5547 73.75 28.3398 73.6523C27.832 73.3789 25.293 73.3789 24.7852 73.6523C24.5703 73.75 24.1992 74.2969 23.9453 74.8633C23.418 76.0547 22.0508 77.3828 20.9766 77.7539C20 78.0859 17.5 78.0859 16.5234 77.7539C15.4492 77.3828 14.082 76.0547 13.5547 74.8633C13.3008 74.2969 12.9297 73.75 12.7148 73.6523C12.2266 73.3789 9.58984 73.3789 9.12109 73.6523Z" fill="black"/>
<path d="M4.6875 93.75V95.3125H50H95.3125V93.75V92.1875H50H4.6875V93.75Z" fill="black"/>
</svg>
