<svg width="100" height="100" viewBox="0 0 100 100" fill="none" xmlns="http://www.w3.org/2000/svg">
<g clip-path="url(#clip0_1_2)">
<path d="M5.25391 3.0078C3.32031 3.53515 1.50391 5.03905 0.585938 6.93359C0.117188 7.87109 0.0976562 8.0664 0.0390625 12.793L-0.0195312 17.6758L0.546875 18.5742C0.9375 19.1601 1.40625 19.6094 1.93359 19.8437L2.71484 20.2148L2.73438 58.4375C2.73438 92.9102 2.77344 96.6797 3.04688 96.9531C3.32031 97.2266 7.85156 97.2656 50 97.2656C92.1484 97.2656 96.6797 97.2266 96.9531 96.9531C97.2266 96.6797 97.2656 92.9102 97.2656 58.4375L97.2852 20.2148L98.0664 19.8437C98.5938 19.6094 99.0625 19.1601 99.4531 18.5742L100.02 17.6758L99.9609 12.793L99.9023 7.91015L99.3359 6.77734C98.6328 5.39062 97.2266 4.04296 95.7422 3.35937L94.6289 2.83202L50.3906 2.79296C15.7422 2.77343 5.95703 2.81249 5.25391 3.0078ZM94.0234 4.78515C95.957 5.29296 97.5586 6.79687 98.0469 8.57421C98.1445 8.96484 98.2422 10.9766 98.2422 13.0469C98.2422 17.207 98.125 17.7148 97.0703 18.2617C96.5625 18.5156 91.1914 18.5547 50 18.5547C8.80859 18.5547 3.4375 18.5156 2.92969 18.2617C1.875 17.7148 1.75781 17.207 1.75781 13.0469C1.75781 10.9766 1.85547 8.96484 1.95312 8.57421C2.22656 7.55859 3.10547 6.34765 4.02344 5.66405C5.70312 4.45312 2.8125 4.51171 49.9023 4.51171C87.8516 4.49218 93.0273 4.53124 94.0234 4.78515ZM95.5078 24.707V29.1016H50H4.49219V24.707V20.3125H50H95.5078V24.707ZM95.5078 58.8867V86.9141H50H4.49219V58.8867V30.8594H50H95.5078V58.8867ZM95.5078 92.0898V95.5078H50H4.49219V92.0898V88.6719H50H95.5078V92.0898Z" fill="black"/>
<path d="M11.8555 34.7852C10.2539 35.1758 8.73046 36.25 7.83202 37.6562C6.60155 39.5898 6.62108 39.043 6.67968 59.5898L6.73827 78.2227L7.18749 79.3359C7.79296 80.8008 9.16014 82.2656 10.6445 82.9492L11.8164 83.4961H16.2109C20.3125 83.4961 20.6641 83.4766 21.5234 83.0664C22.8125 82.4805 24.3164 81.0156 24.9414 79.707L25.4883 78.6133V59.082V39.5508L24.9219 38.418C24.2187 37.0508 22.9883 35.8789 21.5234 35.1953C20.4492 34.6875 20.293 34.668 16.5039 34.6289C14.3555 34.6094 12.2656 34.668 11.8555 34.7852ZM20.7031 36.8359C21.1914 37.0703 21.9531 37.6562 22.4023 38.1445C23.9062 39.7852 23.8476 38.7891 23.7891 59.4922C23.7305 77.6172 23.7305 77.8516 23.3203 78.7109C22.793 79.8438 21.8359 80.8203 20.7031 81.3281C19.9414 81.6797 19.3555 81.7383 16.5625 81.7969C12.7344 81.875 11.6992 81.6602 10.3711 80.5273C9.90233 80.1367 9.31639 79.375 9.06249 78.8281L8.59374 77.832V59.082V40.332L9.06249 39.3555C9.29686 38.8086 9.84374 38.0859 10.2539 37.7344C11.6406 36.5039 12.4414 36.3477 16.5039 36.3867C19.3945 36.4258 19.9414 36.4844 20.7031 36.8359Z" fill="black"/>
<path d="M10.7031 39.8633C10.293 40.0977 10.2344 41.0156 10.5859 41.3672C10.7422 41.5234 11.7578 41.6016 13.75 41.6211L16.6992 41.6406L13.8672 42.9883C10.2344 44.707 10.4688 44.5703 10.3906 45.293L10.332 45.8984L13.6133 47.4609C15.4102 48.3203 17.3438 49.2383 17.8711 49.4922L18.8477 49.9609L15.7227 51.4453C10.2734 54.0234 10.4492 53.9062 10.4492 54.668V55.3125L14.2578 57.1094C16.3477 58.0859 18.2617 58.9844 18.5156 59.082C18.9062 59.2578 18.457 59.5312 14.6484 61.3086L10.3516 63.3398V63.9648V64.5898L14.6289 66.6016L18.9062 68.6328L14.6875 70.6055L10.4492 72.5977V73.2617C10.4492 74.0039 10.3516 73.9453 14.4531 75.8789L16.6992 76.9336H13.9062C12.3633 76.9531 10.9375 77.0508 10.7227 77.1484C10.293 77.3828 10.2148 78.3008 10.5859 78.6719C10.7617 78.8477 12.2656 78.9062 16.1328 78.9062C20.7031 78.9062 21.5039 78.8672 21.7578 78.5938C22.168 78.2031 22.1484 77.6758 21.7383 77.3047C21.543 77.1484 19.6094 76.1914 17.4414 75.1758C15.2734 74.1602 13.5547 73.2812 13.6328 73.2227C13.7109 73.1445 15.5664 72.2461 17.7734 71.2305C21.0742 69.6875 21.8164 69.2773 21.9531 68.8672C22.1094 68.4766 22.0703 68.2812 21.8555 68.0664C21.7188 67.9297 19.7852 66.9531 17.5977 65.918C15.3906 64.9023 13.5742 64.0234 13.5352 63.9844C13.4961 63.9648 15.332 63.0664 17.5781 62.0117C19.8438 60.9375 21.7969 59.9609 21.9141 59.8047C22.0703 59.6289 22.0703 59.375 21.9531 59.043C21.8164 58.6328 21.0547 58.2031 17.7344 56.6602C15.5078 55.6055 13.6328 54.7266 13.5938 54.668C13.5352 54.6094 15.2734 53.75 17.4414 52.7344C19.6094 51.7383 21.543 50.7617 21.7578 50.5664C22.0117 50.332 22.0898 50.0781 22.0117 49.7656C21.8945 49.3555 21.1914 48.9648 17.7734 47.3633C15.5273 46.3086 13.6719 45.3711 13.6719 45.3125C13.6719 45.2344 15.5273 44.3164 17.7734 43.2617C21.2305 41.6406 21.9141 41.25 22.0117 40.8398C22.0898 40.4883 22.0117 40.2734 21.6797 40C21.2891 39.6875 20.8008 39.6484 16.1328 39.6484C13.0469 39.6484 10.8984 39.7461 10.7031 39.8633Z" fill="black"/>
<path d="M34.1016 34.8828C32.2461 35.4688 30.625 36.8945 29.8047 38.6523L29.3945 39.5508V59.082V78.6133L29.8242 79.5312C30.4102 80.8203 31.875 82.3242 33.1836 82.9492L34.2773 83.4961H38.6719H43.0664L44.375 82.8516C46.3672 81.875 47.6172 80.2148 48.0469 77.9492C48.3203 76.5234 48.3203 41.6406 48.0469 40.2148C47.6172 37.9688 46.2109 36.1523 44.1797 35.1953C43.1055 34.6875 42.9492 34.668 39.0625 34.6289C35.8984 34.5898 34.8633 34.6484 34.1016 34.8828ZM43.4766 36.9531C44.5898 37.5391 45.3906 38.3789 45.918 39.5508C46.2695 40.293 46.2891 41.3477 46.2891 59.082V77.832L45.8203 78.8086C45.5859 79.3555 45.0391 80.0781 44.6289 80.4492C43.2422 81.6602 42.8906 81.7383 38.6719 81.7383H34.8633L33.8086 81.1523C32.7539 80.5664 32.1875 79.9609 31.5234 78.7109C31.1719 78.0664 31.1523 77.207 31.1523 59.082V40.1367L31.582 39.3359C32.0898 38.3789 33.0078 37.4023 33.8086 37.0117C34.8633 36.4648 35.8398 36.3477 39.1602 36.3867C42.3438 36.4453 42.5195 36.4648 43.4766 36.9531Z" fill="black"/>
<path d="M33.2422 39.9609C32.793 40.2734 32.6953 40.7227 33.0078 41.2109C33.1445 41.4453 33.8086 41.5234 36.2305 41.6016L39.2773 41.6992L36.1328 43.1445C31.543 45.2734 31.5625 45.332 37.1875 47.9492C39.4922 49.0234 41.3281 49.9609 41.25 50.0195C41.1719 50.0977 39.3555 50.9766 37.207 51.9727C35.0586 52.9688 33.1836 53.8672 33.0664 53.9648C32.6953 54.2383 32.7734 55.0195 33.1836 55.3125C33.3984 55.4688 35.332 56.4062 37.4805 57.4219C39.6484 58.418 41.3477 59.2969 41.2695 59.375C41.1719 59.4336 39.4531 60.2734 37.4023 61.2109C32.9102 63.3008 32.8125 63.3594 32.8125 63.9648C32.8125 64.5703 32.9102 64.6289 37.4023 66.7188C39.4531 67.6562 41.1719 68.4766 41.25 68.5547C41.3281 68.6133 39.5703 69.5312 37.3047 70.5859C35.0586 71.6406 33.125 72.6172 32.9883 72.7734C32.8711 72.9297 32.8125 73.2422 32.8906 73.4961C32.9688 73.8477 33.6523 74.2578 36.0742 75.4297L39.1602 76.9141L36.4258 76.9336C34.2773 76.9531 33.5938 77.0117 33.2422 77.2656C32.7344 77.6172 32.6953 78.1641 33.125 78.5938C33.3789 78.8672 34.1797 78.9062 38.75 78.9062C44.4727 78.9062 44.5313 78.8867 44.5313 77.8906C44.5313 77.3633 44.3555 77.2461 41.4648 75.8789C39.7656 75.0781 37.8516 74.1602 37.207 73.8477L36.0352 73.2812L38.9648 71.8945C44.4727 69.2969 44.4336 69.3359 44.4336 68.5938V67.9297L40.7227 66.1914C38.6914 65.2344 36.7773 64.3555 36.4648 64.2188C35.957 63.9648 36.0742 63.9062 40.1758 61.9922L44.4336 60V59.3555C44.4336 58.7305 44.3555 58.6523 42.8711 57.9102C42.0117 57.4805 40.1172 56.5625 38.6719 55.8789L36.0352 54.6484L37.6953 53.8281C38.6133 53.3984 40.5273 52.4805 41.9531 51.8164C44.4336 50.6641 44.5313 50.5859 44.5313 50.0195C44.5313 49.2773 44.5898 49.3164 39.9023 47.1484C37.832 46.1914 36.1328 45.3711 36.1328 45.3125C36.1328 45.2539 37.9102 44.375 40.0977 43.3789C42.2656 42.3633 44.1602 41.4648 44.2969 41.3477C44.668 41.0547 44.5898 40.0781 44.1602 39.8438C43.9258 39.7266 41.8359 39.6484 38.7305 39.6484C34.4727 39.6484 33.6133 39.6875 33.2422 39.9609Z" fill="black"/>
<path d="M56.9727 34.7852C54.4531 35.3711 52.4609 37.5195 51.9531 40.2148C51.8359 40.8789 51.7578 47.8516 51.7578 59.082C51.7578 70.3125 51.8359 77.2852 51.9531 77.9492C52.3828 80.2148 53.6328 81.875 55.625 82.8516L56.9336 83.4961H61.3281C65.4297 83.4961 65.7812 83.4766 66.6406 83.0664C67.9297 82.4805 69.4336 81.0156 70.0586 79.707L70.6055 78.6133V59.082V39.5508L70.1953 38.6523C69.6875 37.5781 68.5352 36.25 67.5586 35.625C66.1719 34.7461 65.0391 34.5703 61.25 34.5898C59.2969 34.6094 57.3828 34.6875 56.9727 34.7852ZM65.8203 36.8359C66.875 37.3242 67.832 38.2422 68.418 39.3359L68.8477 40.1367V59.082C68.8477 77.207 68.8281 78.0664 68.4766 78.7109C67.8125 79.9609 67.2461 80.5664 66.1914 81.1523C65.1562 81.7188 65.0781 81.7383 61.7773 81.7969C57.8516 81.8945 56.8164 81.6797 55.4883 80.5273C55.0195 80.1367 54.4336 79.375 54.1797 78.8281L53.7109 77.832V59.082C53.7109 41.2695 53.7305 40.293 54.082 39.5312C54.7852 37.9688 56.0352 36.9336 57.7148 36.5039C58.0469 36.4258 59.8047 36.3672 61.6211 36.3867C64.4922 36.4258 65.0586 36.4844 65.8203 36.8359Z" fill="black"/>
<path d="M55.8203 39.8633C55.4102 40.0977 55.3516 41.0156 55.7031 41.3672C55.8594 41.5234 56.875 41.6016 58.8867 41.6211H61.8164L58.6523 43.1641C55.5469 44.668 55.4688 44.707 55.4688 45.3125C55.4688 45.8984 55.5469 45.957 58.5547 47.3633C60.2344 48.1641 62.1484 49.082 62.793 49.3945L63.9648 49.9609L60.8398 51.4453C55.3711 54.0234 55.5664 53.9062 55.5664 54.668V55.3125L59.8242 57.3047L64.0625 59.2773L61.4844 60.4883C56.5039 62.832 55.5664 63.3398 55.5078 63.8281C55.4688 64.082 55.5273 64.3945 55.6445 64.5312C55.7617 64.6875 57.7148 65.6641 59.9609 66.6992L64.043 68.6133L59.8047 70.6055L55.5664 72.5977V73.2617C55.5664 74.0234 55.3711 73.8867 59.375 75.7812L61.8164 76.9336H59.0234C57.4805 76.9531 56.0547 77.0508 55.8398 77.1484C55.6055 77.2852 55.4688 77.5586 55.4688 77.9297C55.4688 78.3008 55.6055 78.5742 55.8398 78.7109C56.0742 78.8281 58.2031 78.9062 61.4062 78.9062C65.8398 78.9062 66.6211 78.8672 66.875 78.5938C67.2852 78.2031 67.2656 77.6758 66.8555 77.3047C66.6602 77.1289 64.7266 76.1719 62.5586 75.1758C60.3906 74.1602 58.6719 73.2812 58.75 73.2227C58.8281 73.1445 60.6445 72.2852 62.793 71.2891C64.9414 70.293 66.8164 69.375 66.9531 69.2773C67.0898 69.1602 67.1875 68.8477 67.1484 68.5742C67.0898 68.0078 66.5625 67.7148 61.3477 65.2734L58.5352 63.9453L62.6562 62.0312C64.9023 60.9766 66.8555 60.0195 66.9727 59.9023C67.2656 59.6094 67.2461 58.8867 66.9531 58.6328C66.8164 58.5352 64.9414 57.6367 62.793 56.6211C60.6445 55.625 58.8281 54.7656 58.75 54.707C58.6719 54.6289 60.3906 53.75 62.5586 52.7539C64.7266 51.7383 66.6602 50.7617 66.875 50.5664C67.1289 50.332 67.207 50.0781 67.1094 49.7461C67.0117 49.3555 66.3281 48.9648 62.8906 47.3633C60.6445 46.3086 58.7891 45.3711 58.7891 45.3125C58.7891 45.2344 60.6445 44.3164 62.8906 43.2617C66.3672 41.6406 67.0117 41.2695 67.1289 40.8594C67.207 40.4883 67.1289 40.2734 66.7969 40C66.4062 39.6875 65.918 39.6484 61.25 39.6484C58.1641 39.6484 56.0156 39.7461 55.8203 39.8633Z" fill="black"/>
<path d="M79.3945 34.8438C77.3438 35.5078 76.0156 36.6211 75.0586 38.4766L74.5117 39.5508V59.082V78.6133L74.9414 79.5508C75.5469 80.8398 76.9922 82.3242 78.3008 82.9492L79.3945 83.4961H83.7891H88.1836L89.3555 82.9492C90.8398 82.2656 92.207 80.8008 92.8125 79.3359L93.2617 78.2227L93.3203 59.5898C93.3594 43.2422 93.3398 40.8203 93.0664 39.7852C92.5195 37.6172 91.1914 36.0547 89.1211 35.0977C88.2617 34.707 87.8516 34.668 84.1797 34.6289C81.2891 34.5898 79.9609 34.6484 79.3945 34.8438ZM88.3008 36.7578C89.375 37.2266 90.4492 38.2812 90.9375 39.3555L91.4062 40.332V59.082V77.832L90.9375 78.8281C90.6836 79.375 90.0977 80.1367 89.6289 80.5273C88.3008 81.6602 87.2656 81.875 83.4375 81.7969C80.6445 81.7383 80.0586 81.6797 79.2969 81.3281C78.1641 80.8203 77.207 79.8438 76.6797 78.7109C76.2695 77.8516 76.2695 77.6172 76.2109 59.4922C76.1523 38.8086 76.0938 39.7656 77.5781 38.1445C79.082 36.543 79.8633 36.3281 84.2773 36.3867C86.7969 36.4258 87.7734 36.5234 88.3008 36.7578Z" fill="black"/>
<path d="M78.3594 39.9609C77.9102 40.2734 77.8125 40.7227 78.125 41.2109C78.2617 41.4453 78.9258 41.5234 81.3672 41.6016L84.4141 41.6992L81.2695 43.1641C78.7109 44.3359 78.0859 44.707 77.9883 45.0781C77.9102 45.3906 77.9883 45.6641 78.2422 45.8984C78.457 46.0742 80.3906 47.0508 82.5586 48.0664C84.7266 49.082 86.4453 49.9609 86.3672 50.0391C86.2891 50.0977 84.4141 51.0156 82.168 52.0508C78.8477 53.6133 78.1055 54.043 78.0078 54.4141C77.9297 54.6875 77.9883 55 78.0859 55.1367C78.2031 55.2734 80.1562 56.25 82.4219 57.3242C84.6875 58.3789 86.4648 59.2969 86.3867 59.375C86.3086 59.4336 84.4727 60.3125 82.3242 61.3281C80.1758 62.3242 78.3008 63.2227 78.1836 63.3398C78.0469 63.4375 77.9297 63.7305 77.9297 63.9648C77.9297 64.1992 78.0469 64.4922 78.1836 64.5898C78.3008 64.707 80.1758 65.6055 82.3242 66.6016C84.4727 67.6172 86.2891 68.4766 86.3867 68.5547C86.4648 68.6133 84.6875 69.5312 82.4219 70.5859C80.1758 71.6406 78.2227 72.6367 78.1055 72.7734C77.9883 72.9297 77.9297 73.2422 78.0078 73.4961C78.0859 73.8672 78.75 74.2578 81.2891 75.4492L84.4727 76.9531H81.6406C79.375 76.9531 78.7109 77.0117 78.3594 77.2656C77.8516 77.6172 77.8125 78.1641 78.2422 78.5938C78.4961 78.8672 79.2969 78.9062 83.8672 78.9062C89.5898 78.9062 89.6484 78.8867 89.6484 77.8711C89.6484 77.3438 89.4922 77.2461 86.582 75.8594C84.8828 75.0781 82.9688 74.1602 82.3242 73.8477L81.1523 73.2812L83.7891 72.0508C85.2344 71.3672 87.1289 70.4492 87.9883 70.0195C89.4727 69.2773 89.5508 69.2188 89.5508 68.5742V67.9102L85.293 65.9375C81.1914 64.0234 81.0742 63.9648 81.582 63.7109C81.8945 63.5742 83.8086 62.6953 85.8398 61.7383L89.5508 60.0195V59.3555C89.5508 58.7109 89.4922 58.6523 87.793 57.8125C86.8359 57.3242 84.9414 56.4062 83.5938 55.7812L81.1523 54.6484L82.5195 53.9844C83.2812 53.6133 85.1758 52.7148 86.7773 51.9531C89.4922 50.6836 89.6484 50.5664 89.6484 50.0586C89.6484 49.7461 89.5703 49.4141 89.4531 49.2969C89.3555 49.1992 87.4609 48.2812 85.2539 47.2656C83.0664 46.25 81.25 45.3711 81.25 45.3125C81.25 45.2539 82.9492 44.4336 85.0195 43.4766C87.0703 42.5195 88.9648 41.6211 89.2188 41.4648C89.7656 41.1328 89.8047 40.1367 89.2773 39.8438C89.043 39.7266 86.9531 39.6484 83.8477 39.6484C79.5898 39.6484 78.7305 39.6875 78.3594 39.9609Z" fill="black"/>
</g>
<defs>
<clipPath id="clip0_1_2">
<rect width="100" height="100" fill="white"/>
</clipPath>
</defs>
</svg>
