<svg width="100" height="100" viewBox="0 0 100 100" fill="none" xmlns="http://www.w3.org/2000/svg">
<path d="M20.6641 2.03125C18.5742 2.89062 17.1289 4.47266 16.5039 6.52344C16.3281 7.07031 12.9297 24.7852 8.92577 45.8984L1.66015 84.2773L1.60155 88.8867C1.56249 93.1836 1.58202 93.5742 1.97265 94.6094C2.51952 96.0742 3.90624 97.4805 5.37108 98.0273L6.46483 98.4375H50H93.5351L94.6289 98.0273C96.0742 97.4805 97.4805 96.0742 98.0273 94.6289C98.3984 93.6328 98.4375 93.125 98.4375 89.082C98.4375 84.4141 98.3203 83.6523 97.4805 82.4609C97.1289 81.9336 97.1289 81.9141 97.7148 79.6875C98.2031 77.7539 98.3008 76.9922 98.3789 74.2188C98.457 71.7773 98.3984 70.5469 98.164 69.1406C97.5781 65.7617 96.0937 62.1094 94.1992 59.3945L93.3398 58.1445L88.4765 32.3828C84.7851 12.8125 83.4961 6.36719 83.125 5.56641C82.5 4.21875 81.1328 2.83203 79.7266 2.1875L78.6133 1.66016L50.1953 1.62109L21.7773 1.5625L20.6641 2.03125ZM77.168 4.88281C78.457 5.13672 79.4336 5.85938 80.0391 7.05078C80.3711 7.69531 81.5039 13.3594 84.7656 30.7227C87.1289 43.2617 89.0625 53.5547 89.0625 53.6133C89.0625 53.6523 88.3594 53.2227 87.5 52.6367C84.668 50.7227 81.4648 49.3945 77.9687 48.6914C75.6641 48.2422 70.8008 48.2422 68.6523 48.7109C63.418 49.8438 59.1601 52.1289 55.5664 55.7422C52.0312 59.2969 49.5898 64.0039 48.7305 68.9062C48.3008 71.3086 48.3398 75.8008 48.7891 77.9688L49.1406 79.6875L27.5976 79.7266C14.9023 79.7656 6.05468 79.707 6.05468 79.6094C6.05468 79.5117 9.08202 63.3398 12.793 43.6719C17.9687 16.0938 19.6289 7.71484 19.9609 7.05078C20.5273 5.9375 21.5625 5.11719 22.6758 4.90234C23.9258 4.64844 75.8594 4.64844 77.168 4.88281ZM76.0937 51.8555C77.832 52.0117 80.6836 52.832 82.5195 53.6914C87.7148 56.1133 91.8359 60.5664 93.8086 65.8594C94.8242 68.5742 95.0195 69.7852 95 73.5352C95 76.6797 94.9414 77.2461 94.4922 78.9258C92.2265 87.2656 85.2539 93.5547 76.7578 94.9414C74.8828 95.2344 71.1914 95.1758 69.4141 94.8242C64.9609 93.9062 61.2305 91.9141 58.0859 88.7891C49.5703 80.2539 49.5703 66.6016 58.0859 58.0859C61.7187 54.4531 66.4648 52.2266 71.4844 51.7578C73.1055 51.6211 73.6719 51.6406 76.0937 51.8555ZM10.9375 86.7188V90.625H12.5H14.0625V86.7188V82.8125H16.4062H18.75V86.7188V90.625H20.3125H21.875V86.7188V82.8125H24.2187H26.5625V86.7188V90.625H28.125H29.6875V86.7188V82.8125H32.0312H34.375V86.7188V90.625H35.9375H37.5V86.7188V82.8125H39.8437H42.1875V86.7188V90.625H43.75H45.3125V86.7188V82.8125H47.7148H50.1172L50.8008 84.2188C52.5976 87.9883 56.0156 91.9727 59.375 94.2188L61.0351 95.3125H34.5703C19.3945 95.3125 7.77343 95.2344 7.34374 95.1172C6.38671 94.9023 5.68358 94.3945 5.17577 93.5352C4.82421 92.9297 4.78515 92.5195 4.78515 89.0625C4.78515 85.6055 4.82421 85.1953 5.17577 84.5898C5.95702 83.2617 6.89452 82.8711 9.43358 82.832L10.9375 82.8125V86.7188ZM95.2148 92.1289C95.0781 93.3398 94.4922 94.2578 93.5547 94.8047C92.9492 95.1758 92.4805 95.2148 89.3555 95.2734L85.8398 95.332L87.5 94.2188C89.5898 92.832 92.9687 89.4336 94.2383 87.4609L95.2148 85.957L95.2734 88.5352C95.3125 89.9609 95.2734 91.5625 95.2148 92.1289Z" fill="black"/>
<path d="M31.25 12.5V14.0625H32.8125H34.375V12.5V10.9375H32.8125H31.25V12.5Z" fill="black"/>
<path d="M48.4375 12.5V14.0625H50H51.5625V12.5V10.9375H50H48.4375V12.5Z" fill="black"/>
<path d="M65.625 12.5V14.0625H67.1875H68.75V12.5V10.9375H67.1875H65.625V12.5Z" fill="black"/>
<path d="M29.6875 21.875V23.4375H31.25H32.8125V21.875V20.3125H31.25H29.6875V21.875Z" fill="black"/>
<path d="M48.4375 21.875V23.4375H50H51.5625V21.875V20.3125H50H48.4375V21.875Z" fill="black"/>
<path d="M67.1875 21.875V23.4375H68.75H70.3125V21.875V20.3125H68.75H67.1875V21.875Z" fill="black"/>
<path d="M28.125 31.25V32.8125H29.6875H31.25V31.25V29.6875H29.6875H28.125V31.25Z" fill="black"/>
<path d="M48.4375 31.25V32.8125H50H51.5625V31.25V29.6875H50H48.4375V31.25Z" fill="black"/>
<path d="M68.75 31.25V32.8125H70.3125H71.875V31.25V29.6875H70.3125H68.75V31.25Z" fill="black"/>
<path d="M26.5625 40.625V42.1875H28.125H29.6875V40.625V39.0625H28.125H26.5625V40.625Z" fill="black"/>
<path d="M48.4375 40.625V42.1875H50H51.5625V40.625V39.0625H50H48.4375V40.625Z" fill="black"/>
<path d="M70.3125 40.625V42.1875H71.875H73.4375V40.625V39.0625H71.875H70.3125V40.625Z" fill="black"/>
<path d="M25 50V51.5625H26.5625H28.125V50V48.4375H26.5625H25V50Z" fill="black"/>
<path d="M48.4375 50V51.5625H50H51.5625V50V48.4375H50H48.4375V50Z" fill="black"/>
<path d="M23.4375 59.375V60.9375H25H26.5625V59.375V57.8125H25H23.4375V59.375Z" fill="black"/>
<path d="M21.875 68.75V70.3125H23.4375H25V68.75V67.1875H23.4375H21.875V68.75Z" fill="black"/>
<path d="M64.0625 59.375V60.9375H66.3477H68.6328L68.125 61.4648C67.4414 62.1875 67.1875 62.8906 67.1875 64.082C67.1875 66.4844 67.9883 67.168 72.7344 68.75C75.6836 69.7266 76.3672 70.0195 76.3672 70.3125C76.3672 70.6055 75.6836 70.8984 72.7344 71.875C67.9883 73.457 67.1875 74.1406 67.1875 76.5625C67.1875 78.9844 67.9883 79.668 72.7344 81.25C75.6836 82.2266 76.3672 82.5195 76.3672 82.8125C76.3672 83.1055 75.6055 83.418 72.207 84.5508C68.1445 85.918 68.0273 85.9375 66.0547 85.9375H64.0625V87.5V89.0625H73.4375H82.8125V87.5V85.9375H80.5273H78.2422L78.75 85.4102C79.4336 84.6875 79.6875 83.9844 79.6875 82.793C79.6875 80.3906 78.8867 79.707 74.1406 78.125C71.1914 77.1484 70.5078 76.8555 70.5078 76.5625C70.5078 76.2695 71.1914 75.9766 74.1406 75C78.8867 73.418 79.6875 72.7344 79.6875 70.3125C79.6875 67.8906 78.8867 67.207 74.1406 65.625C71.1914 64.6484 70.5078 64.3555 70.5078 64.0625C70.5078 63.7695 71.2695 63.457 74.668 62.3242C78.7305 60.957 78.8477 60.9375 80.8203 60.9375H82.8125V59.375V57.8125H73.4375H64.0625V59.375Z" fill="black"/>
</svg>
